<svg width="37" height="37" viewBox="0 0 37 37" fill="none" xmlns="http://www.w3.org/2000/svg">
<g filter="url(#filter0_d_27_2449)">
<path d="M18.2998 12.6334V17.3M18.2998 17.3V21.9667M18.2998 17.3H22.9665M18.2998 17.3H13.6331M32.2998 17.3C32.2998 19.1386 31.9377 20.9591 31.2341 22.6576C30.5306 24.3562 29.4993 25.8995 28.1993 27.1995C26.8993 28.4996 25.3559 29.5308 23.6574 30.2344C21.9588 30.9379 20.1383 31.3 18.2998 31.3C16.4613 31.3 14.6408 30.9379 12.9422 30.2344C11.2437 29.5308 9.70033 28.4996 8.40031 27.1995C7.10029 25.8995 6.06906 24.3562 5.36549 22.6576C4.66193 20.9591 4.2998 19.1386 4.2998 17.3C4.2998 13.587 5.7748 10.0261 8.40031 7.40055C11.0258 4.77504 14.5868 3.30005 18.2998 3.30005C22.0128 3.30005 25.5738 4.77504 28.1993 7.40055C30.8248 10.0261 32.2998 13.587 32.2998 17.3Z" stroke="#FBFFFF" stroke-width="2" stroke-linecap="round" stroke-linejoin="round" shape-rendering="crispEdges"/>
</g>
<defs>
<filter id="filter0_d_27_2449" x="-0.000195265" y="4.88758e-05" width="36.6" height="36.6" filterUnits="userSpaceOnUse" color-interpolation-filters="sRGB">
<feFlood flood-opacity="0" result="BackgroundImageFix"/>
<feColorMatrix in="SourceAlpha" type="matrix" values="0 0 0 0 0 0 0 0 0 0 0 0 0 0 0 0 0 0 127 0" result="hardAlpha"/>
<feOffset dy="1"/>
<feGaussianBlur stdDeviation="1.65"/>
<feComposite in2="hardAlpha" operator="out"/>
<feColorMatrix type="matrix" values="0 0 0 0 0 0 0 0 0 0 0 0 0 0 0 0 0 0 0.25 0"/>
<feBlend mode="normal" in2="BackgroundImageFix" result="effect1_dropShadow_27_2449"/>
<feBlend mode="normal" in="SourceGraphic" in2="effect1_dropShadow_27_2449" result="shape"/>
</filter>
</defs>
</svg>
