<svg width="162" height="115" viewBox="0 0 162 115" fill="none" xmlns="http://www.w3.org/2000/svg">
<path fill-rule="evenodd" clip-rule="evenodd" d="M71.9466 33.4583L46.1279 28.9091L46.8747 24.6775C46.9239 24.3999 47.0273 24.1347 47.1791 23.8971C47.3308 23.6595 47.5279 23.4541 47.7591 23.2927C47.9902 23.1312 48.251 23.017 48.5263 22.9563C48.8017 22.8957 49.0863 22.89 49.3638 22.9394L109.014 33.4583H109.391H109.018L116.979 34.8617C117.257 34.9104 117.523 35.0135 117.761 35.165C117.999 35.3165 118.205 35.5135 118.367 35.7448C118.529 35.976 118.643 36.2369 118.704 36.5125C118.765 36.7881 118.771 37.073 118.721 37.3508L117.975 41.5738L109.005 39.9945L105.572 98.3354C105.444 100.519 104.487 102.572 102.896 104.074C101.306 105.576 99.2018 106.414 97.0142 106.417H65.9898C63.7999 106.417 61.6927 105.581 60.0995 104.078C58.5062 102.576 57.5474 100.522 57.4193 98.3354L53.9903 39.8958H108.452L71.9466 33.4583ZM68.6248 50.625L70.7707 89.25H77.2082L75.4915 50.625H68.6248ZM87.9373 50.625L85.7915 89.25H92.229L94.3748 50.625H87.9373ZM76.5816 16.8453L93.4908 19.8237C93.7684 19.8729 94.0336 19.9763 94.2712 20.1281C94.5088 20.2798 94.7142 20.4769 94.8757 20.7081C95.0371 20.9392 95.1514 21.1999 95.212 21.4753C95.2726 21.7507 95.2783 22.0353 95.2289 22.3128L94.4821 26.5358L73.35 22.8107L74.0967 18.5834C74.1459 18.3058 74.2494 18.0406 74.4011 17.8029C74.5529 17.5653 74.7499 17.3599 74.9811 17.1985C75.2123 17.0371 75.473 16.9228 75.7483 16.8622C76.0237 16.8016 76.304 16.7958 76.5816 16.8453Z" fill="#F36060"/>
<line x1="13" y1="101" x2="23" y2="101" stroke="#F36060" stroke-width="2.5"/>
<line x1="18" y1="96" x2="18" y2="106" stroke="#F36060" stroke-width="2.5"/>
<line x1="150" y1="35" x2="160" y2="35" stroke="#F36060" stroke-width="2.5"/>
<line x1="155" y1="30" x2="155" y2="40" stroke="#F36060" stroke-width="2.5"/>
<line y1="25" x2="10" y2="25" stroke="#F36060" stroke-width="2.5"/>
<line x1="5" y1="20" x2="5" y2="30" stroke="#F36060" stroke-width="2.5"/>
<line x1="109" y1="5" x2="119" y2="5" stroke="#F36060" stroke-width="2.5"/>
<line x1="114" y1="4.78092e-08" x2="114" y2="10" stroke="#F36060" stroke-width="2.5"/>
<line x1="130.25" y1="84" x2="137.75" y2="84" stroke="#F36060" stroke-width="1.875"/>
<line x1="134" y1="80.25" x2="134" y2="87.75" stroke="#F36060" stroke-width="1.875"/>
<line x1="25.5" y1="41" x2="30.5" y2="41" stroke="#F36060" stroke-width="1.25"/>
<line x1="28" y1="38.5" x2="28" y2="43.5" stroke="#F36060" stroke-width="1.25"/>
</svg>
