<svg width="36" height="36" viewBox="0 0 36 36" fill="none" xmlns="http://www.w3.org/2000/svg">
<g clip-path="url(#clip0_25_134)">
<path d="M18 14V18M18 18V22M18 18H22M18 18H14M30 18C30 19.5759 29.6896 21.1363 29.0866 22.5922C28.4835 24.0481 27.5996 25.371 26.4853 26.4853C25.371 27.5996 24.0481 28.4835 22.5922 29.0866C21.1363 29.6896 19.5759 30 18 30C16.4241 30 14.8637 29.6896 13.4078 29.0866C11.9519 28.4835 10.629 27.5996 9.51472 26.4853C8.40042 25.371 7.5165 24.0481 6.91345 22.5922C6.31039 21.1363 6 19.5759 6 18C6 14.8174 7.26428 11.7652 9.51472 9.51472C11.7652 7.26428 14.8174 6 18 6C21.1826 6 24.2348 7.26428 26.4853 9.51472C28.7357 11.7652 30 14.8174 30 18Z" stroke="#BABABA" stroke-width="2" stroke-linecap="round" stroke-linejoin="round"/>
</g>
<defs>
<clipPath id="clip0_25_134">
<rect width="36" height="36" fill="white"/>
</clipPath>
</defs>
</svg>
