<svg width="35" height="35" viewBox="0 0 35 35" fill="none" xmlns="http://www.w3.org/2000/svg">
<g filter="url(#filter0_d_38_1924)">
<mask id="path-1-inside-1_38_1924" fill="white">
<path d="M6.6001 7.34998H8.3501V9.09998H6.6001V7.34998ZM6.6001 10.85H8.3501V12.6H6.6001V10.85ZM18.8501 7.34998H20.6001V9.09998H18.8501V7.34998ZM28.8442 19.6H24.606L26.7251 17.4945L28.8442 19.6ZM22.3501 15.225C22.3501 14.988 22.4367 14.7829 22.6099 14.6097C22.783 14.4366 22.9881 14.35 23.2251 14.35C23.4621 14.35 23.6672 14.4366 23.8403 14.6097C24.0135 14.7829 24.1001 14.988 24.1001 15.225C24.1001 15.462 24.0135 15.667 23.8403 15.8402C23.6672 16.0134 23.4621 16.1 23.2251 16.1C22.9881 16.1 22.783 16.0134 22.6099 15.8402C22.4367 15.667 22.3501 15.462 22.3501 15.225ZM31.1001 10.85V23.1H29.3501V12.6H11.8501V20.1058L16.2251 15.7445L22.3501 21.8558L24.1001 20.1058V22.5941L23.5942 23.1H21.106L16.2251 18.2054L11.8501 22.5941V24.85H20.6001V26.6H10.1001V17.85H3.1001V2.09998H24.1001V10.85H31.1001ZM22.3501 10.85V3.84998H20.6001V5.59998H18.8501V3.84998H8.3501V5.59998H6.6001V3.84998H4.8501V16.1H6.6001V14.35H8.3501V16.1H10.1001V10.85H22.3501ZM27.6001 24.85H31.1001V26.6H27.6001V30.1H25.8501V26.6H22.3501V24.85H25.8501V21.35H27.6001V24.85Z"/>
</mask>
<path d="M6.6001 7.34998V-107.65H-108.4V7.34998H6.6001ZM8.3501 7.34998H123.35V-107.65H8.3501V7.34998ZM8.3501 9.09998V124.1H123.35V9.09998H8.3501ZM6.6001 9.09998H-108.4V124.1H6.6001V9.09998ZM6.6001 10.85V-104.15H-108.4V10.85H6.6001ZM8.3501 10.85H123.35V-104.15H8.3501V10.85ZM8.3501 12.6V127.6H123.35V12.6H8.3501ZM6.6001 12.6H-108.4V127.6H6.6001V12.6ZM18.8501 7.34998V-107.65H-96.1499V7.34998H18.8501ZM20.6001 7.34998H135.6V-107.65H20.6001V7.34998ZM20.6001 9.09998V124.1H135.6V9.09998H20.6001ZM18.8501 9.09998H-96.1499V124.1H18.8501V9.09998ZM28.8442 19.6V134.6H307.754L109.898 -61.98L28.8442 19.6ZM24.606 19.6L-56.4477 -61.98L-254.304 134.6H24.606V19.6ZM26.7251 17.4945L107.779 -64.0855L26.7251 -144.616L-54.3286 -64.0855L26.7251 17.4945ZM31.1001 10.85H146.1V-104.15H31.1001V10.85ZM31.1001 23.1V138.1H146.1V23.1H31.1001ZM29.3501 23.1H-85.6499V138.1H29.3501V23.1ZM29.3501 12.6H144.35V-102.4H29.3501V12.6ZM11.8501 12.6V-102.4H-103.15V12.6H11.8501ZM11.8501 20.1058H-103.15V297.127L93.04 101.55L11.8501 20.1058ZM16.2251 15.7445L97.4515 -65.6636L16.2614 -146.672L-64.9648 -65.6999L16.2251 15.7445ZM22.3501 21.8558L-58.8763 103.264L22.4409 184.4L103.667 103.173L22.3501 21.8558ZM24.1001 20.1058H139.1V-257.529L-57.2172 -61.2114L24.1001 20.1058ZM24.1001 22.5941L105.417 103.911L139.1 70.2287V22.5941H24.1001ZM23.5942 23.1V138.1H71.2288L104.912 104.417L23.5942 23.1ZM21.106 23.1L-60.325 104.303L-26.6228 138.1H21.106V23.1ZM16.2251 18.2054L97.656 -62.998L16.2119 -144.67L-65.2189 -62.9849L16.2251 18.2054ZM11.8501 22.5941L-69.5939 -58.5962L-103.15 -24.9354V22.5941H11.8501ZM11.8501 24.85H-103.15V139.85H11.8501V24.85ZM20.6001 24.85H135.6V-90.15H20.6001V24.85ZM20.6001 26.6V141.6H135.6V26.6H20.6001ZM10.1001 26.6H-104.9V141.6H10.1001V26.6ZM10.1001 17.85H125.1V-97.15H10.1001V17.85ZM3.1001 17.85H-111.9V132.85H3.1001V17.85ZM3.1001 2.09998V-112.9H-111.9V2.09998H3.1001ZM24.1001 2.09998H139.1V-112.9H24.1001V2.09998ZM24.1001 10.85H-90.8999V125.85H24.1001V10.85ZM22.3501 10.85V125.85H137.35V10.85H22.3501ZM22.3501 3.84998H137.35V-111.15H22.3501V3.84998ZM20.6001 3.84998V-111.15H-94.3999V3.84998H20.6001ZM20.6001 5.59998V120.6H135.6V5.59998H20.6001ZM18.8501 5.59998H-96.1499V120.6H18.8501V5.59998ZM18.8501 3.84998H133.85V-111.15H18.8501V3.84998ZM8.3501 3.84998V-111.15H-106.65V3.84998H8.3501ZM8.3501 5.59998V120.6H123.35V5.59998H8.3501ZM6.6001 5.59998H-108.4V120.6H6.6001V5.59998ZM6.6001 3.84998H121.6V-111.15H6.6001V3.84998ZM4.8501 3.84998V-111.15H-110.15V3.84998H4.8501ZM4.8501 16.1H-110.15V131.1H4.8501V16.1ZM6.6001 16.1V131.1H121.6V16.1H6.6001ZM6.6001 14.35V-100.65H-108.4V14.35H6.6001ZM8.3501 14.35H123.35V-100.65H8.3501V14.35ZM8.3501 16.1H-106.65V131.1H8.3501V16.1ZM10.1001 16.1V131.1H125.1V16.1H10.1001ZM10.1001 10.85V-104.15H-104.9V10.85H10.1001ZM27.6001 24.85H-87.3999V139.85H27.6001V24.85ZM31.1001 24.85H146.1V-90.15H31.1001V24.85ZM31.1001 26.6V141.6H146.1V26.6H31.1001ZM27.6001 26.6V-88.4H-87.3999V26.6H27.6001ZM27.6001 30.1V145.1H142.6V30.1H27.6001ZM25.8501 30.1H-89.1499V145.1H25.8501V30.1ZM25.8501 26.6H140.85V-88.4H25.8501V26.6ZM22.3501 26.6H-92.6499V141.6H22.3501V26.6ZM22.3501 24.85V-90.15H-92.6499V24.85H22.3501ZM25.8501 24.85V139.85H140.85V24.85H25.8501ZM25.8501 21.35V-93.65H-89.1499V21.35H25.8501ZM27.6001 21.35H142.6V-93.65H27.6001V21.35ZM6.6001 7.34998V122.35H8.3501V7.34998V-107.65H6.6001V7.34998ZM8.3501 7.34998H-106.65V9.09998H8.3501H123.35V7.34998H8.3501ZM8.3501 9.09998V-105.9H6.6001V9.09998V124.1H8.3501V9.09998ZM6.6001 9.09998H121.6V7.34998H6.6001H-108.4V9.09998H6.6001ZM6.6001 10.85V125.85H8.3501V10.85V-104.15H6.6001V10.85ZM8.3501 10.85H-106.65V12.6H8.3501H123.35V10.85H8.3501ZM8.3501 12.6V-102.4H6.6001V12.6V127.6H8.3501V12.6ZM6.6001 12.6H121.6V10.85H6.6001H-108.4V12.6H6.6001ZM18.8501 7.34998V122.35H20.6001V7.34998V-107.65H18.8501V7.34998ZM20.6001 7.34998H-94.3999V9.09998H20.6001H135.6V7.34998H20.6001ZM20.6001 9.09998V-105.9H18.8501V9.09998V124.1H20.6001V9.09998ZM18.8501 9.09998H133.85V7.34998H18.8501H-96.1499V9.09998H18.8501ZM28.8442 19.6V-95.4H24.606V19.6V134.6H28.8442V19.6ZM24.606 19.6L105.66 101.18L107.779 99.0745L26.7251 17.4945L-54.3286 -64.0855L-56.4477 -61.98L24.606 19.6ZM26.7251 17.4945L-54.3286 99.0745L-52.2095 101.18L28.8442 19.6L109.898 -61.98L107.779 -64.0855L26.7251 17.4945ZM22.3501 15.225H137.35C137.35 29.4665 134.672 44.6738 128.359 59.6252C122.078 74.5017 113.279 86.5754 103.927 95.927L22.6099 14.6097L-58.7074 -66.7075C-79.6408 -45.7742 -92.6499 -16.6339 -92.6499 15.225H22.3501ZM22.6099 14.6097L103.927 95.927C94.5756 105.279 82.5018 114.077 67.6253 120.359C52.674 126.671 37.4667 129.35 23.2251 129.35V14.35V-100.65C-8.63376 -100.65 -37.7741 -87.6409 -58.7074 -66.7075L22.6099 14.6097ZM23.2251 14.35V129.35C8.98353 129.35 -6.22376 126.671 -21.1751 120.359C-36.0516 114.077 -48.1254 105.279 -57.4769 95.927L23.8403 14.6097L105.158 -66.7075C84.2243 -87.6409 55.084 -100.65 23.2251 -100.65V14.35ZM23.8403 14.6097L-57.4769 95.927C-66.8285 86.5754 -75.6274 74.5017 -81.9085 59.6252C-88.2213 44.6738 -90.8999 29.4665 -90.8999 15.225H24.1001H139.1C139.1 -16.6339 126.091 -45.7742 105.158 -66.7075L23.8403 14.6097ZM24.1001 15.225H-90.8999C-90.8999 0.983411 -88.2213 -14.2239 -81.9085 -29.1753C-75.6274 -44.0517 -66.8285 -56.1255 -57.4769 -65.4771L23.8403 15.8402L105.158 97.1575C126.091 76.2242 139.1 47.0838 139.1 15.225H24.1001ZM23.8403 15.8402L-57.4769 -65.4771C-48.1254 -74.8287 -36.0516 -83.6275 -21.1751 -89.9087C-6.22376 -96.2215 8.98353 -98.9 23.2251 -98.9V16.1V131.1C55.084 131.1 84.2243 118.091 105.158 97.1575L23.8403 15.8402ZM23.2251 16.1V-98.9C37.4667 -98.9 52.674 -96.2215 67.6253 -89.9087C82.5018 -83.6275 94.5756 -74.8287 103.927 -65.4771L22.6099 15.8402L-58.7074 97.1575C-37.7741 118.091 -8.63376 131.1 23.2251 131.1V16.1ZM22.6099 15.8402L103.927 -65.4771C113.279 -56.1255 122.078 -44.0517 128.359 -29.1753C134.672 -14.2239 137.35 0.983411 137.35 15.225H22.3501H-92.6499C-92.6499 47.0838 -79.6408 76.2242 -58.7074 97.1575L22.6099 15.8402ZM31.1001 10.85H-83.8999V23.1H31.1001H146.1V10.85H31.1001ZM31.1001 23.1V-91.9H29.3501V23.1V138.1H31.1001V23.1ZM29.3501 23.1H144.35V12.6H29.3501H-85.6499V23.1H29.3501ZM29.3501 12.6V-102.4H11.8501V12.6V127.6H29.3501V12.6ZM11.8501 12.6H-103.15V20.1058H11.8501H126.85V12.6H11.8501ZM11.8501 20.1058L93.04 101.55L97.415 97.1889L16.2251 15.7445L-64.9648 -65.6999L-69.3398 -61.3386L11.8501 20.1058ZM16.2251 15.7445L-65.0013 97.1526L-58.8763 103.264L22.3501 21.8558L103.576 -59.5522L97.4515 -65.6636L16.2251 15.7445ZM22.3501 21.8558L103.667 103.173L105.417 101.423L24.1001 20.1058L-57.2172 -61.2114L-58.9672 -59.4614L22.3501 21.8558ZM24.1001 20.1058H-90.8999V22.5941H24.1001H139.1V20.1058H24.1001ZM24.1001 22.5941L-57.2172 -58.7232L-57.723 -58.2173L23.5942 23.1L104.912 104.417L105.417 103.911L24.1001 22.5941ZM23.5942 23.1V-91.9H21.106V23.1V138.1H23.5942V23.1ZM21.106 23.1L102.537 -58.1035L97.656 -62.998L16.2251 18.2054L-65.2058 99.4089L-60.325 104.303L21.106 23.1ZM16.2251 18.2054L-65.2189 -62.9849L-69.5939 -58.5962L11.8501 22.5941L93.2941 103.784L97.6691 99.3958L16.2251 18.2054ZM11.8501 22.5941H-103.15V24.85H11.8501H126.85V22.5941H11.8501ZM11.8501 24.85V139.85H20.6001V24.85V-90.15H11.8501V24.85ZM20.6001 24.85H-94.3999V26.6H20.6001H135.6V24.85H20.6001ZM20.6001 26.6V-88.4H10.1001V26.6V141.6H20.6001V26.6ZM10.1001 26.6H125.1V17.85H10.1001H-104.9V26.6H10.1001ZM10.1001 17.85V-97.15H3.1001V17.85V132.85H10.1001V17.85ZM3.1001 17.85H118.1V2.09998H3.1001H-111.9V17.85H3.1001ZM3.1001 2.09998V117.1H24.1001V2.09998V-112.9H3.1001V2.09998ZM24.1001 2.09998H-90.8999V10.85H24.1001H139.1V2.09998H24.1001ZM24.1001 10.85V125.85H31.1001V10.85V-104.15H24.1001V10.85ZM22.3501 10.85H137.35V3.84998H22.3501H-92.6499V10.85H22.3501ZM22.3501 3.84998V-111.15H20.6001V3.84998V118.85H22.3501V3.84998ZM20.6001 3.84998H-94.3999V5.59998H20.6001H135.6V3.84998H20.6001ZM20.6001 5.59998V-109.4H18.8501V5.59998V120.6H20.6001V5.59998ZM18.8501 5.59998H133.85V3.84998H18.8501H-96.1499V5.59998H18.8501ZM18.8501 3.84998V-111.15H8.3501V3.84998V118.85H18.8501V3.84998ZM8.3501 3.84998H-106.65V5.59998H8.3501H123.35V3.84998H8.3501ZM8.3501 5.59998V-109.4H6.6001V5.59998V120.6H8.3501V5.59998ZM6.6001 5.59998H121.6V3.84998H6.6001H-108.4V5.59998H6.6001ZM6.6001 3.84998V-111.15H4.8501V3.84998V118.85H6.6001V3.84998ZM4.8501 3.84998H-110.15V16.1H4.8501H119.85V3.84998H4.8501ZM4.8501 16.1V131.1H6.6001V16.1V-98.9H4.8501V16.1ZM6.6001 16.1H121.6V14.35H6.6001H-108.4V16.1H6.6001ZM6.6001 14.35V129.35H8.3501V14.35V-100.65H6.6001V14.35ZM8.3501 14.35H-106.65V16.1H8.3501H123.35V14.35H8.3501ZM8.3501 16.1V131.1H10.1001V16.1V-98.9H8.3501V16.1ZM10.1001 16.1H125.1V10.85H10.1001H-104.9V16.1H10.1001ZM10.1001 10.85V125.85H22.3501V10.85V-104.15H10.1001V10.85ZM27.6001 24.85V139.85H31.1001V24.85V-90.15H27.6001V24.85ZM31.1001 24.85H-83.8999V26.6H31.1001H146.1V24.85H31.1001ZM31.1001 26.6V-88.4H27.6001V26.6V141.6H31.1001V26.6ZM27.6001 26.6H-87.3999V30.1H27.6001H142.6V26.6H27.6001ZM27.6001 30.1V-84.9H25.8501V30.1V145.1H27.6001V30.1ZM25.8501 30.1H140.85V26.6H25.8501H-89.1499V30.1H25.8501ZM25.8501 26.6V-88.4H22.3501V26.6V141.6H25.8501V26.6ZM22.3501 26.6H137.35V24.85H22.3501H-92.6499V26.6H22.3501ZM22.3501 24.85V139.85H25.8501V24.85V-90.15H22.3501V24.85ZM25.8501 24.85H140.85V21.35H25.8501H-89.1499V24.85H25.8501ZM25.8501 21.35V136.35H27.6001V21.35V-93.65H25.8501V21.35ZM27.6001 21.35H-87.3999V24.85H27.6001H142.6V21.35H27.6001Z" fill="#BDFFFF" mask="url(#path-1-inside-1_38_1924)"/>
</g>
<defs>
<filter id="filter0_d_38_1924" x="9.77516e-05" y="-2.43187e-05" width="34.2" height="34.2" filterUnits="userSpaceOnUse" color-interpolation-filters="sRGB">
<feFlood flood-opacity="0" result="BackgroundImageFix"/>
<feColorMatrix in="SourceAlpha" type="matrix" values="0 0 0 0 0 0 0 0 0 0 0 0 0 0 0 0 0 0 127 0" result="hardAlpha"/>
<feOffset dy="1"/>
<feGaussianBlur stdDeviation="1.55"/>
<feComposite in2="hardAlpha" operator="out"/>
<feColorMatrix type="matrix" values="0 0 0 0 0 0 0 0 0 0 0 0 0 0 0 0 0 0 0.25 0"/>
<feBlend mode="normal" in2="BackgroundImageFix" result="effect1_dropShadow_38_1924"/>
<feBlend mode="normal" in="SourceGraphic" in2="effect1_dropShadow_38_1924" result="shape"/>
</filter>
</defs>
</svg>
