<svg width="22" height="22" viewBox="0 0 22 22" fill="none" xmlns="http://www.w3.org/2000/svg">
<path d="M18 6L17.133 18.142C17.0971 18.6466 16.8713 19.1188 16.5011 19.4636C16.1309 19.8083 15.6439 20 15.138 20H6.862C6.35614 20 5.86907 19.8083 5.49889 19.4636C5.1287 19.1188 4.90292 18.6466 4.867 18.142L4 6M9 10V16M13 10V16M14 6V3C14 2.73478 13.8946 2.48043 13.7071 2.29289C13.5196 2.10536 13.2652 2 13 2H9C8.73478 2 8.48043 2.10536 8.29289 2.29289C8.10536 2.48043 8 2.73478 8 3V6M3 6H19" stroke="#BABABA" stroke-width="2" stroke-linecap="round" stroke-linejoin="round"/>
</svg>
