<svg width="22" height="22" viewBox="0 0 22 22" fill="none" xmlns="http://www.w3.org/2000/svg">
<g clip-path="url(#clip0_80_3200)">
<path d="M11 4.02458H6C5.46957 4.02458 4.96086 4.23529 4.58579 4.61036C4.21071 4.98544 4 5.49414 4 6.02458V17.0246C4 17.555 4.21071 18.0637 4.58579 18.4388C4.96086 18.8139 5.46957 19.0246 6 19.0246H17C17.5304 19.0246 18.0391 18.8139 18.4142 18.4388C18.7893 18.0637 19 17.555 19 17.0246V12.0246M17.586 2.61058C17.7705 2.41956 17.9912 2.26719 18.2352 2.16237C18.4792 2.05756 18.7416 2.00238 19.0072 2.00008C19.2728 1.99777 19.5361 2.04837 19.7819 2.14893C20.0277 2.24949 20.251 2.398 20.4388 2.58579C20.6266 2.77357 20.7751 2.99688 20.8756 3.24267C20.9762 3.48846 21.0268 3.75182 21.0245 4.01738C21.0222 4.28294 20.967 4.54538 20.8622 4.78939C20.7574 5.03339 20.605 5.25408 20.414 5.43858L11.828 14.0246H9V11.1966L17.586 2.61058Z" stroke="#BABABA" stroke-width="2" stroke-linecap="round" stroke-linejoin="round"/>
</g>
<defs>
<clipPath id="clip0_80_3200">
<rect width="22" height="22" fill="white"/>
</clipPath>
</defs>
</svg>
