<svg width="26" height="29" viewBox="0 0 26 29" fill="none" xmlns="http://www.w3.org/2000/svg">
<path d="M23.5 7L22.1995 25.213C22.1456 25.9699 21.8069 26.6782 21.2517 27.1954C20.6964 27.7125 19.9658 28 19.207 28H6.793C6.03421 28 5.3036 27.7125 4.74833 27.1954C4.19306 26.6782 3.85437 25.9699 3.8005 25.213L2.5 7M10 13V22M16 13V22M17.5 7V2.5C17.5 2.10218 17.342 1.72064 17.0607 1.43934C16.7794 1.15804 16.3978 1 16 1H10C9.60218 1 9.22064 1.15804 8.93934 1.43934C8.65804 1.72064 8.5 2.10218 8.5 2.5V7M1 7H25" stroke="white" stroke-width="2" stroke-linecap="round" stroke-linejoin="round"/>
</svg>
