<svg width="33" height="37" viewBox="0 0 33 37" fill="none" xmlns="http://www.w3.org/2000/svg">
<g filter="url(#filter0_d_27_2471)">
<path d="M16.1001 21.7666V24.8778M7.1001 31.1H25.1001C25.8957 31.1 26.6588 30.7722 27.2214 30.1888C27.784 29.6053 28.1001 28.814 28.1001 27.9889V18.6555C28.1001 17.8304 27.784 17.0391 27.2214 16.4556C26.6588 15.8722 25.8957 15.5444 25.1001 15.5444H7.1001C6.30445 15.5444 5.54139 15.8722 4.97878 16.4556C4.41617 17.0391 4.1001 17.8304 4.1001 18.6555V27.9889C4.1001 28.814 4.41617 29.6053 4.97878 30.1888C5.54139 30.7722 6.30445 31.1 7.1001 31.1ZM22.1001 15.5444V9.3222C22.1001 7.67196 21.468 6.08932 20.3427 4.92242C19.2175 3.75553 17.6914 3.09998 16.1001 3.09998C14.5088 3.09998 12.9827 3.75553 11.8575 4.92242C10.7322 6.08932 10.1001 7.67196 10.1001 9.3222V15.5444H22.1001Z" stroke="#FBFFFF" stroke-width="2" stroke-linecap="round" stroke-linejoin="round" shape-rendering="crispEdges"/>
</g>
<defs>
<filter id="filter0_d_27_2471" x="9.77516e-05" y="-2.43187e-05" width="32.2" height="36.2" filterUnits="userSpaceOnUse" color-interpolation-filters="sRGB">
<feFlood flood-opacity="0" result="BackgroundImageFix"/>
<feColorMatrix in="SourceAlpha" type="matrix" values="0 0 0 0 0 0 0 0 0 0 0 0 0 0 0 0 0 0 127 0" result="hardAlpha"/>
<feOffset dy="1"/>
<feGaussianBlur stdDeviation="1.55"/>
<feComposite in2="hardAlpha" operator="out"/>
<feColorMatrix type="matrix" values="0 0 0 0 0 0 0 0 0 0 0 0 0 0 0 0 0 0 0.25 0"/>
<feBlend mode="normal" in2="BackgroundImageFix" result="effect1_dropShadow_27_2471"/>
<feBlend mode="normal" in="SourceGraphic" in2="effect1_dropShadow_27_2471" result="shape"/>
</filter>
</defs>
</svg>
