<svg width="36" height="36" viewBox="0 0 36 36" fill="none" xmlns="http://www.w3.org/2000/svg">
<g clip-path="url(#clip0_25_179)">
<path d="M16.7535 8.32716C16.6241 7.97415 16.3933 7.66719 16.0902 7.44472C15.787 7.22226 15.425 7.09419 15.0494 7.07655C12.827 6.95595 10.5991 6.97787 8.37946 7.14216C7.92899 7.17735 7.50498 7.36885 7.18075 7.68356C6.85653 7.99827 6.65248 8.41639 6.6039 8.86562C5.9535 14.532 5.73735 20.2196 6.41476 25.8994C6.64636 27.8255 8.22506 29.2267 10.1126 29.4312C15.4025 30.0088 20.7399 30.0043 26.0289 29.4177C26.9319 29.318 27.7748 28.9163 28.4211 28.2778C29.0674 27.6392 29.4791 26.8012 29.5897 25.8994C30.0104 22.3869 30.1204 18.7895 29.8599 14.3776C29.809 13.4926 29.4402 12.6558 28.8214 12.021C28.2027 11.3863 27.3755 10.9964 26.4921 10.923C23.8982 10.7107 22.0937 10.6991 18.9074 10.6315C18.5211 10.6229 18.1463 10.4986 17.8314 10.2746C17.5166 10.0506 17.2762 9.73726 17.1415 9.37513L16.7555 8.32909L16.7535 8.32716Z" stroke="#BABABA" stroke-width="2" stroke-linejoin="round"/>
<path d="M6.30859 24.751C7.60583 22.9147 9.18161 21.2921 10.9791 19.9416C12.1622 19.0268 13.8084 18.9515 14.9915 19.8682C18.2299 22.3753 20.9994 26.0789 22.8676 29.7014M23.0066 20.3932C24.6084 20.3932 25.5078 19.4919 25.5078 17.892C25.5078 16.2901 24.6084 15.3907 23.0066 15.3907C21.4047 15.3907 20.5054 16.2901 20.5054 17.892C20.5054 19.4938 21.4047 20.3932 23.0066 20.3932Z" stroke="#BABABA" stroke-width="2" stroke-linecap="round" stroke-linejoin="round"/>
</g>
<defs>
<clipPath id="clip0_25_179">
<rect width="36" height="36" fill="white"/>
</clipPath>
</defs>
</svg>
