<svg width="36" height="36" viewBox="0 0 36 36" fill="none" xmlns="http://www.w3.org/2000/svg">
<g clip-path="url(#clip0_25_215)">
<path fill-rule="evenodd" clip-rule="evenodd" d="M7.5 8C7.89782 8 8.27936 8.15804 8.56066 8.43934C8.84196 8.72064 9 9.10218 9 9.5V27.5C9 27.8978 8.84196 28.2794 8.56066 28.5607C8.27936 28.842 7.89782 29 7.5 29C7.10218 29 6.72064 28.842 6.43934 28.5607C6.15804 28.2794 6 27.8978 6 27.5V9.5C6 9.10218 6.15804 8.72064 6.43934 8.43934C6.72064 8.15804 7.10218 8 7.5 8ZM19.0605 12.9395C19.3417 13.2208 19.4997 13.6023 19.4997 14C19.4997 14.3977 19.3417 14.7792 19.0605 15.0605L17.121 17H28.5C28.8978 17 29.2794 17.158 29.5607 17.4393C29.842 17.7206 30 18.1022 30 18.5C30 18.8978 29.842 19.2794 29.5607 19.5607C29.2794 19.842 28.8978 20 28.5 20H17.121L19.0605 21.9395C19.3337 22.2224 19.4849 22.6013 19.4815 22.9946C19.4781 23.3879 19.3203 23.7641 19.0422 24.0422C18.7641 24.3203 18.3879 24.4781 17.9946 24.4815C17.6013 24.4849 17.2224 24.3337 16.9395 24.0605L12.4395 19.5605C12.1583 19.2792 12.0003 18.8977 12.0003 18.5C12.0003 18.1023 12.1583 17.7208 12.4395 17.4395L16.9395 12.9395C17.2208 12.6583 17.6023 12.5003 18 12.5003C18.3977 12.5003 18.7792 12.6583 19.0605 12.9395Z" fill="#BABABA"/>
</g>
<defs>
<clipPath id="clip0_25_215">
<rect width="36" height="36" fill="white"/>
</clipPath>
</defs>
</svg>
