<svg width="36" height="36" viewBox="0 0 36 36" fill="none" xmlns="http://www.w3.org/2000/svg">
<path d="M6 18L8.66667 15.3333M8.66667 15.3333L18 6L27.3333 15.3333M8.66667 15.3333V28.6667C8.66667 29.0203 8.80714 29.3594 9.05719 29.6095C9.30724 29.8595 9.64638 30 10 30H14M27.3333 15.3333L30 18M27.3333 15.3333V28.6667C27.3333 29.0203 27.1929 29.3594 26.9428 29.6095C26.6928 29.8595 26.3536 30 26 30H22M14 30C14.3536 30 14.6928 29.8595 14.9428 29.6095C15.1929 29.3594 15.3333 29.0203 15.3333 28.6667V23.3333C15.3333 22.9797 15.4738 22.6406 15.7239 22.3905C15.9739 22.1405 16.313 22 16.6667 22H19.3333C19.687 22 20.0261 22.1405 20.2761 22.3905C20.5262 22.6406 20.6667 22.9797 20.6667 23.3333V28.6667C20.6667 29.0203 20.8071 29.3594 21.0572 29.6095C21.3072 29.8595 21.6464 30 22 30M14 30H22" stroke="#BABABA" stroke-width="2" stroke-linecap="round" stroke-linejoin="round"/>
</svg>
