<svg width="22" height="22" viewBox="0 0 22 22" fill="none" xmlns="http://www.w3.org/2000/svg">
<g clip-path="url(#clip0_27_2665)">
<g filter="url(#filter0_d_27_2665)">
<path d="M11 14V16M5 20H17C17.5304 20 18.0391 19.7893 18.4142 19.4142C18.7893 19.0391 19 18.5304 19 18V12C19 11.4696 18.7893 10.9609 18.4142 10.5858C18.0391 10.2107 17.5304 10 17 10H5C4.46957 10 3.96086 10.2107 3.58579 10.5858C3.21071 10.9609 3 11.4696 3 12V18C3 18.5304 3.21071 19.0391 3.58579 19.4142C3.96086 19.7893 4.46957 20 5 20ZM15 10V6C15 4.93913 14.5786 3.92172 13.8284 3.17157C13.0783 2.42143 12.0609 2 11 2C9.93913 2 8.92172 2.42143 8.17157 3.17157C7.42143 3.92172 7 4.93913 7 6V10H15Z" stroke="#169DD9" stroke-width="2" stroke-linecap="round" stroke-linejoin="round" shape-rendering="crispEdges"/>
</g>
</g>
<defs>
<filter id="filter0_d_27_2665" x="-1.1" y="-1.1" width="24.2" height="26.2" filterUnits="userSpaceOnUse" color-interpolation-filters="sRGB">
<feFlood flood-opacity="0" result="BackgroundImageFix"/>
<feColorMatrix in="SourceAlpha" type="matrix" values="0 0 0 0 0 0 0 0 0 0 0 0 0 0 0 0 0 0 127 0" result="hardAlpha"/>
<feOffset dy="1"/>
<feGaussianBlur stdDeviation="1.55"/>
<feComposite in2="hardAlpha" operator="out"/>
<feColorMatrix type="matrix" values="0 0 0 0 0 0 0 0 0 0 0 0 0 0 0 0 0 0 0.25 0"/>
<feBlend mode="normal" in2="BackgroundImageFix" result="effect1_dropShadow_27_2665"/>
<feBlend mode="normal" in="SourceGraphic" in2="effect1_dropShadow_27_2665" result="shape"/>
</filter>
<clipPath id="clip0_27_2665">
<rect width="22" height="22" fill="white"/>
</clipPath>
</defs>
</svg>
